<svg xmlns="http://www.w3.org/2000/svg" id="Layer_1" width="32" height="32" version="1" viewBox="0 0 32 32"><g id="g4963"><path id="path7" fill="#5dc560" fill-rule="evenodd" d="M 32,16 C 32,24.877077 24.82392,32 16,32 7.122924,32 0,24.823921 0,16 0,7.1760799 7.122924,2e-7 16,2e-7 24.877076,2e-7 32,7.1760799 32,16 l 0,0 z" clip-rule="evenodd"/><path id="path3351" d="M 16.990234 31.900391 C 17.742431 31.853681 18.499975 31.822673 19.220703 31.675781 C 20.261401 31.463676 21.265846 31.151286 22.222656 30.748047 C 23.179467 30.344808 24.088124 29.850745 24.939453 29.277344 C 25.790782 28.703943 26.584341 28.050716 27.308594 27.328125 C 28.032846 26.605534 28.68809 25.8137 29.263672 24.962891 C 29.839253 24.112081 30.334919 23.202197 30.740234 22.244141 C 31.14555 21.286084 31.460373 20.28066 31.673828 19.236328 C 31.710418 19.057312 31.699888 18.862831 31.730469 18.681641 L 21.845703 8.7988281 L 21.845703 8.796875 L 21.798828 8.7519531 L 21.751953 8.7519531 L 21.705078 8.7519531 L 21.658203 8.7519531 L 21.611328 8.7519531 L 21.564453 8.7519531 L 21.519531 8.7519531 L 10.435547 8.7519531 L 10.388672 8.7519531 L 10.341797 8.7519531 L 10.294922 8.7050781 C 10.248152 8.7518461 10.201172 8.7519531 10.201172 8.7519531 C 10.201172 8.7519531 10.201067 8.796875 10.154297 8.796875 L 10.154297 8.84375 L 10.154297 8.890625 L 10.154297 8.9375 L 9.9199219 10.574219 L 10.388672 11.042969 L 9.8261719 11.042969 L 9.359375 14.550781 L 9.7089844 14.900391 C 9.5926717 15.016178 9.4598108 15.134778 9.359375 15.251953 C 9.359375 15.298713 9.3125 15.298828 9.3125 15.298828 L 9.125 16.654297 L 9.640625 17.169922 L 9.21875 17.169922 L 9.03125 18.337891 L 9.5 18.806641 L 8.984375 18.806641 L 8.4707031 21.892578 L 8.8457031 22.267578 L 8.3769531 22.267578 L 8.2363281 23.015625 C 8.2363281 23.092212 8.2682713 23.163031 8.3164062 23.216797 C 8.3200369 23.220932 8.3184023 23.228559 8.3222656 23.232422 L 16.990234 31.900391 z " opacity=".25"/><path id="path9" fill="#fff" d="m 10.294367,8.7042754 0,0 c -0.04677,0.046768 -0.04677,0.046768 0,0 -0.04677,0.046768 -0.09354,0.046768 -0.09354,0.046768 0,0 0,0 0,0 0,0 0,0.046768 -0.04677,0.046768 0,0 0,0 0,0 0,0 0,0 0,0.046768 0,0 0,0 0,0.046768 l 0,0 c 0,0.046768 0,0.046768 0,0.046768 l -0.2338382,1.6368626 1.1691872,0 c 0,-0.37414 0.04677,-0.7482805 0,-1.1691879 0,-0.093535 0.04677,-0.2338373 0.140302,-0.2338373 0.140302,-0.046768 0.327372,0.093534 0.327372,0.2338373 0,0.4209074 0,0.7950479 -0.04676,1.1691879 l 1.68363,0 0,-0.233838 c 0,-0.09353 0.04677,-0.18707 0.140303,-0.233838 0.140302,-0.04677 0.327372,0.09353 0.327372,0.233838 l 0,0.233838 4.489678,0 0,-0.233838 c 0,-0.09353 0.04677,-0.18707 0.187069,-0.233838 0.140303,-0.04677 0.327373,0.09353 0.327373,0.233838 l 0,0.233838 1.777164,0 c 0,-0.37414 0,-0.7482805 0,-1.1691879 0,-0.093535 0.04677,-0.2338373 0.140303,-0.2338373 0.140302,-0.046768 0.327372,0.093534 0.327372,0.2338373 0,0.4209074 0,0.8418149 0.04677,1.1691879 l 1.215954,0 -0.2806,-1.5900945 c 0,-0.046768 0,-0.046768 0,-0.093535 l 0,0 c 0,0 0,0 0,0 0,0 0,-0.046768 -0.04677,-0.046768 0,0 0,0 0,-0.046768 0,0 0,0 -0.04676,-0.046768 0,0 -0.04677,0 -0.04677,0 l 0,0 c 0,0 0,0 -0.04677,0 0,0 0,0 -0.04677,0 l 0,0 c 0,0 0,0 -0.04677,0 l 0,0 -0.04677,0 -0.04676,0 -11.083892,0 -0.04678,0 c 0,0 0,0 -0.04678,0 0,0 0,0 0,0 l -0.04677,0 0,-0.046768 0,0 z m 1.777166,0.4676749 7.436029,0 c -2.665747,0.5612097 -5.144424,0.5612097 -7.436029,0 l 0,0 z M 9.8266921,11.042649 9.359017,14.550211 c 0.5144426,-0.514443 1.075653,-0.982117 1.262722,-1.590095 0.18707,-0.467674 0.327372,-1.12242 0.374139,-1.917467 l -1.1691859,0 0,0 z m 1.6836289,0 c -0.04676,0.888582 -0.18707,1.543327 -0.37414,2.104537 -0.327372,0.841816 -1.2159539,1.449793 -1.777164,2.104537 0,0.04676 -0.046767,0.04676 -0.046767,0.04676 l -0.1870709,1.356257 3.6010979,0 c 0.140302,0 0.233837,0.140302 0.233837,0.233837 l -0.467675,5.191191 c 0,0.09354 -0.140302,0.187069 -0.233838,0.187069 l -3.8817013,0 -0.140302,0.748283 c 0,0.140302 0.093535,0.280605 0.2338368,0.280605 l 6.5942165,0 c 0.140302,0 0.233837,-0.09354 0.233837,-0.233838 l 0.607976,-4.396143 0.327373,4.349376 c 0,0.140302 0.140304,0.233838 0.233838,0.233838 l 7.06189,0 c 0.140303,0 0.233837,-0.140302 0.233837,-0.280605 l -0.09354,-0.654744 -3.975238,0 c -0.140301,0 -0.233837,-0.09354 -0.233837,-0.233838 l -0.327368,-3.460793 c 0,-0.04676 -0.04676,-0.09354 0,-0.140302 l -0.18707,-1.543326 c 0,-0.09354 0.04676,-0.233837 0.18707,-0.233837 0.04677,0 0.04677,0 0.04677,0 l 3.788165,0 -0.233843,-1.403024 c -0.04677,0 -0.04677,-0.04676 -0.09354,-0.04676 C 22.032999,14.59698 21.144417,14.03577 20.817046,13.193956 20.629974,12.632746 20.489672,11.978 20.396138,11.089418 l -1.823932,0 0,0.701511 c 0,0.140303 -0.140303,0.233838 -0.233838,0.233838 -0.09354,0 -0.233838,-0.140301 -0.233838,-0.233838 l 0,-0.701511 -0.888582,0 0.841815,2.525444 c 0.04676,0.140303 0,0.280605 -0.140302,0.327373 -0.140303,0.04676 -0.280605,-0.04676 -0.327373,-0.18707 l -0.888582,-2.665747 -1.543327,0 -0.888582,2.665747 c -0.04676,0.140302 -0.18707,0.233836 -0.327373,0.18707 -0.140302,-0.04676 -0.18707,-0.18707 -0.140302,-0.327373 l 0.841815,-2.525444 -0.982116,0 0,0.701511 c 0,0.140303 -0.09354,0.233838 -0.233839,0.233838 -0.140303,0 -0.233838,-0.140301 -0.233838,-0.233838 l 0,-0.701511 -1.683629,0 0,-0.04676 z m 9.447033,0 c 0.04677,0.795047 0.187069,1.403025 0.37414,1.917467 0.233837,0.607978 0.841813,1.075652 1.356256,1.590095 l -0.514443,-3.507562 -1.215953,0 0,0 z m -11.7386387,6.126541 -0.1870708,1.169186 3.2737245,0 0.09354,-1.169186 -3.1801877,0 0,0 z m 10.2420787,0 0.09354,1.169186 3.414027,0 -0.140303,-1.169186 -3.367258,0 0,0 z m -10.4759163,1.636862 -0.5144426,3.086654 3.5075599,0 0.280606,-3.086654 -3.2737233,0 0,0 z m 10.6162183,0 0.280605,3.086654 3.55433,0 -0.420909,-3.086654 -3.414026,0 0,0 z"/></g></svg>